<svg xmlns="http://www.w3.org/2000/svg" viewBox="0 0 240 160" role="img" aria-label="Literature review visual">
  <defs>
    <linearGradient id="bg" x1="0" x2="1" y1="0" y2="1"><stop stop-color="#13213b"/><stop offset="1" stop-color="#071018"/></linearGradient>
    <linearGradient id="glow" x1="0" x2="1"><stop stop-color="#4dabf7"/><stop offset="1" stop-color="#00e87b"/></linearGradient>
  </defs>
  <rect width="240" height="160" rx="18" fill="url(#bg)"/>
  <circle cx="190" cy="28" r="42" fill="#4dabf7" opacity=".12"/>
  <path d="M54 42h58c13 0 22 9 22 22v62H76c-13 0-22-9-22-22Z" fill="#e9f3ff" opacity=".9"/>
  <path d="M134 64c0-13 9-22 22-22h30v84h-52Z" fill="#bde3ff" opacity=".8"/>
  <path d="M76 62h38M76 78h42M76 94h32M154 62h22M154 78h18M154 94h26" stroke="#102033" stroke-width="5" stroke-linecap="round" opacity=".45"/>
  <path d="M62 126h130" stroke="url(#glow)" stroke-width="5" stroke-linecap="round"/>
  <circle cx="72" cy="31" r="5" fill="#ffd700"/><circle cx="91" cy="24" r="3" fill="#00e87b"/><circle cx="171" cy="31" r="4" fill="#4dabf7"/>
</svg>
